<?xml version="1.0" standalone="no"?>
<!DOCTYPE svg PUBLIC "-//W3C//DTD SVG 20010904//EN"
 "http://www.w3.org/TR/2001/REC-SVG-20010904/DTD/svg10.dtd">
<svg version="1.0" xmlns="http://www.w3.org/2000/svg"
 width="296.000000pt" height="296.000000pt" viewBox="0 0 296.000000 296.000000"
 preserveAspectRatio="xMidYMid meet">
<metadata>
Created by potrace 1.11, written by Peter Selinger 2001-2013
</metadata>
<g transform="translate(0.000000,296.000000) scale(0.100000,-0.100000)"
fill="#000000" stroke="none">
<path d="M879 1902 l-496 -2 -16 -40 c-15 -39 -15 -40 6 -41 12 0 273 -1 580
-1 307 -1 560 -4 562 -8 3 -4 -3 -23 -12 -41 -24 -48 -24 -58 0 -73 18 -12
136 -14 675 -13 l654 2 14 40 c7 22 14 41 14 42 0 0 -282 1 -626 1 -344 0
-628 3 -630 5 -3 3 8 32 25 65 l31 61 -143 3 c-78 2 -365 2 -638 0z"/>
<path d="M444 1678 c-11 -17 -7 -300 4 -307 9 -5 44 -6 72 -2 3 1 4 42 3 91
-1 50 1 90 5 90 4 -1 36 -39 71 -86 66 -87 84 -102 130 -99 l26 1 1 157 c1 86
-1 157 -5 158 -3 1 -22 2 -41 3 l-35 1 -1 -90 c-1 -50 -2 -91 -3 -93 -1 -2
-34 38 -75 90 -68 87 -76 93 -110 94 -20 0 -39 -3 -42 -8z"/>
<path d="M825 1671 c-2 -9 -3 -66 -1 -127 3 -125 16 -155 73 -174 98 -34 184
1 198 79 5 27 8 179 6 226 -1 18 -81 12 -82 -5 0 -8 -1 -58 -2 -111 -2 -103
-12 -129 -51 -129 -51 0 -58 18 -60 140 l-1 114 -37 1 c-26 1 -39 -3 -43 -14z"/>
<path d="M1169 1675 c0 -5 -1 -76 -2 -158 -2 -134 0 -147 16 -148 22 -2 44 -2
57 0 6 0 10 27 10 58 l0 58 37 -55 c20 -30 40 -57 44 -60 7 -5 55 -5 92 -1 5
1 -14 30 -42 66 -28 36 -45 65 -38 65 24 0 57 45 57 77 0 50 -16 79 -52 94
-39 16 -178 20 -179 4z m135 -71 c27 -26 13 -55 -28 -59 -24 -3 -26 0 -26 36
0 32 4 39 19 39 11 0 27 -7 35 -16z"/>
<path d="M1483 1582 c-21 -3 -21 -7 -21 -165 l0 -162 31 2 c18 1 35 2 40 2 4
1 7 28 7 61 0 57 1 60 19 50 89 -47 184 52 144 152 -23 57 -111 89 -146 53
-11 -10 -17 -11 -19 -3 -4 12 -22 16 -55 10z m144 -89 c14 -20 13 -24 -11 -48
-21 -21 -29 -24 -46 -15 -32 17 -41 44 -24 69 20 28 61 25 81 -6z"/>
<path d="M1759 1576 c-4 -40 -3 -199 1 -204 6 -8 70 -10 71 -3 0 4 2 32 3 64
3 54 14 80 37 83 5 1 18 2 29 3 17 1 20 7 18 36 -2 30 -5 35 -24 32 -12 -1
-29 -9 -39 -17 -13 -11 -18 -11 -25 -1 -10 17 -70 23 -71 7z"/>
<path d="M1980 1558 c-17 -15 -30 -34 -31 -41 0 -6 -2 -23 -4 -37 -4 -40 21
-87 56 -105 49 -26 126 -16 156 19 13 15 21 31 19 35 -8 12 -63 6 -80 -8 -21
-18 -62 -6 -69 19 -5 19 0 20 73 20 86 0 93 5 77 55 -23 75 -138 100 -197 43z
m120 -33 c10 -12 9 -15 -6 -16 -11 0 -29 -2 -41 -3 -26 -3 -25 -3 -17 18 8 20
48 21 64 1z"/>
<path d="M2251 1562 c-29 -36 -27 -76 4 -96 13 -9 33 -16 44 -16 11 0 22 -4
26 -9 9 -15 -27 -30 -50 -20 -33 13 -41 10 -53 -15 -10 -21 -8 -25 16 -35 68
-29 143 -7 163 46 13 35 -14 74 -60 87 -40 11 -35 32 7 28 23 -2 32 2 37 17
10 32 0 39 -59 39 -46 0 -57 -4 -75 -26z"/>
<path d="M2472 1570 c-12 -12 -23 -24 -23 -28 -10 -53 5 -77 57 -91 15 -4 29
-12 31 -18 6 -16 -28 -21 -56 -9 -19 8 -26 7 -37 -9 -20 -27 -18 -34 12 -45
46 -18 102 -15 125 6 53 48 44 106 -21 125 -22 7 -40 15 -40 20 0 11 26 18 47
13 25 -7 51 41 27 50 -35 14 -100 6 -122 -14z"/>
<path d="M122 1246 c-7 -18 -12 -37 -12 -43 0 -8 166 -11 580 -10 431 2 580
-1 580 -9 0 -7 -13 -37 -29 -68 l-30 -56 685 0 685 0 15 36 c8 20 13 39 10 42
-4 3 -287 5 -630 5 l-624 0 19 44 c23 54 23 57 4 77 -13 12 -98 14 -628 14
l-614 0 -11 -32z"/>
</g>
</svg>
