<svg version="1" xmlns="http://www.w3.org/2000/svg" width="97.333" height="97.333" viewBox="0 0 73.000000 73.000000"><path d="M23.5 1.4C19.7 3 9 12.8 9 14.6c0 1.6 3.9 5.4 5.5 5.4.8 0 1-1 .7-2.5-.5-3.1.9-5 6.7-8.7 7.7-4.9 11.1-3.1 9.6 5C30.1 21.3 17.6 39 13.7 39c-3.9 0-5.9 2.2-5.5 6 .3 4 3.3 5.3 5.4 2.5 1.5-2 7.6-3.4 14.9-3.4h5l-3.8 3.5c-2.9 2.7-3.7 4.2-3.5 6.2l.3 2.7 11.9-.4c11.2-.3 11.8-.2 11.2 1.6-1.6 4.1-1.9 11.5-.5 12.4 3.3 2.1 4.4 1 4.6-4.1.2-8.7.8-9.8 5.6-10.7 4-.9 4.2-1.1 4-4.2-.2-4.1-.8-4.7-2.8-2.7-2.5 2.4-4.8 2.1-4-.7 2.5-8.7 4.9-15.5 6.1-17.4 1.5-2.3.5-3.7-1.9-2.7-1.6.6-5.5 9.5-7.7 17.6L51.7 50h-8.8c-4.9 0-8.9-.3-8.9-.8.2-3.1 6-5.6 7.5-3.2.3.5 1.3 1 2.1 1 1.9 0 1.8-3.9-.1-6-1.4-1.5-1.2-2.2 2.2-6.6 5.9-7.7 13.3-20.5 13.3-23 0-4-3.7-4.1-7.1-.2-3.1 3.7-3.3 4.2-2 6.7.7 1.3-.5 3.9-5.5 11.4L37.9 39H19.8l4-4.8c2.1-2.6 6.1-8 8.8-12.1 4.3-6.5 4.9-8 4.7-12.3-.2-8.5-5.8-11.9-13.8-8.4z"/></svg>